<svg id="visual" viewBox="0 0 960 540" width="960" height="540" xmlns="http://www.w3.org/2000/svg" xmlns:xlink="http://www.w3.org/1999/xlink" version="1.1"><rect x="0" y="0" width="960" height="540" fill="#001122"></rect><defs><linearGradient id="grad1_0" x1="43.8%" y1="100%" x2="100%" y2="0%"><stop offset="14.444444444444446%" stop-color="#001122" stop-opacity="1"></stop><stop offset="85.55555555555554%" stop-color="#001122" stop-opacity="1"></stop></linearGradient></defs><defs><linearGradient id="grad2_0" x1="0%" y1="100%" x2="56.3%" y2="0%"><stop offset="14.444444444444446%" stop-color="#001122" stop-opacity="1"></stop><stop offset="85.55555555555554%" stop-color="#001122" stop-opacity="1"></stop></linearGradient></defs><g transform="translate(960, 540)"><path d="M-351 0C-315.7 -45.9 -280.3 -91.9 -255.5 -147.5C-230.6 -203.1 -216.3 -268.4 -175.5 -304C-134.7 -339.5 -67.3 -345.3 0 -351L0 0Z" fill="#FCAF3C"></path></g><g transform="translate(0, 0)"><path d="M351 0C340.1 60.1 329.3 120.1 301.4 174C273.5 227.9 228.6 275.5 175.5 304C122.4 332.4 61.2 341.7 0 351L0 0Z" fill="#FCAF3C"></path></g></svg>